{
  "asset": {
    "version": "2.0",
    "generator": "Unreal Engine 5.5.4"
  },
  "scene": 0,
  "accessors": [
    { "bufferView": 0, "count": 210831, "type": "SCALAR", "componentType": 5123 },
    { "bufferView": 1, "count": 45675, "type": "VEC3", "componentType": 5126,
      "min": [-0.49510169, -0.0382694453, -0.497324675],
      "max": [0.494326591, 0.0382310487, 0.49749282]
    },
    { "bufferView": 2, "count": 45675, "type": "VEC3", "componentType": 5126 },
    { "bufferView": 3, "count": 45675, "type": "VEC4", "componentType": 5126 },
    { "bufferView": 4, "count": 45675, "type": "VEC2", "componentType": 5126 },
    { "bufferView": 5, "count": 45675, "type": "VEC2", "componentType": 5126 }
  ],
  "buffers": [
    { "uri": "SM_PCB_Modern_06_Med.bin", "byteLength": 2979464 }
  ],
  "bufferViews": [
    { "buffer": 0, "byteLength": 421662, "target": 34963 },
    { "buffer": 0, "byteLength": 548100, "byteOffset": 421664, "target": 34962 },
    { "buffer": 0, "byteLength": 548100, "byteOffset": 969764, "target": 34962 },
    { "buffer": 0, "byteLength": 730800, "byteOffset": 1517864, "target": 34962 },
    { "buffer": 0, "byteLength": 365400, "byteOffset": 2248664, "target": 34962 },
    { "buffer": 0, "byteLength": 365400, "byteOffset": 2614064, "target": 34962 }
  ],
  "images": [
    { "uri": "Textures/T_PCB_Modern_06_BaseColor_Med.png" },
    { "uri": "Textures/T_PCB_Modern_06_MetallicRoughness_Med.png" },
    { "uri": "Textures/T_PCB_Modern_06_Normal_Med.png" }
  ],
  "samplers": [
    { "minFilter": 9987, "magFilter": 9729 }
  ],
  "textures": [
    { "sampler": 0, "source": 0 },
    { "sampler": 0, "source": 1 },
    { "sampler": 0, "source": 2 }
  ],
  "materials": [
    {
      "name": "PCB_Modern_06_Med",
      "pbrMetallicRoughness": {
        "baseColorTexture": { "index": 0 },
        "metallicRoughnessTexture": { "index": 1 }
      },
      "normalTexture": { "index": 2 }
    }
  ],
  "meshes": [
    {
      "name": "SM_PCB_Modern_06_Med",
      "primitives": [
        {
          "attributes": {
            "POSITION": 1,
            "NORMAL": 2,
            "TANGENT": 3,
            "TEXCOORD_0": 4,
            "TEXCOORD_1": 5
          },
          "indices": 0,
          "material": 0
        }
      ]
    }
  ],
  "nodes": [{ "mesh": 0 }],
  "scenes": [{ "nodes": [0] }]
}
