{
	"asset":
	{
		"version": "2.0",
		"generator": "Unreal Engine 5.5.4"
	},
	"scene": 0,
	"accessors": [
		{
			"bufferView": 0,
			"count": 70278,
			"type": "SCALAR",
			"componentType": 5123
		},
		{
			"bufferView": 1,
			"count": 16800,
			"type": "VEC3",
			"componentType": 5126,
			"min": [ -0.4944731, -0.0383928604, -0.498081893 ],
			"max": [ 0.494493634, 0.0391213, 0.497288615 ]
		},
		{
			"bufferView": 2,
			"count": 16800,
			"type": "VEC3",
			"componentType": 5126
		},
		{
			"bufferView": 3,
			"count": 16800,
			"type": "VEC4",
			"componentType": 5126
		},
		{
			"bufferView": 4,
			"count": 16800,
			"type": "VEC2",
			"componentType": 5126
		},
		{
			"bufferView": 5,
			"count": 16800,
			"type": "VEC2",
			"componentType": 5126
		}
	],
	"buffers": [
		{
			"uri": "SM_PCB_Modern_06_Low.bin",
			"byteLength": 1081356
		}
	],
	"bufferViews": [
		{
			"buffer": 0,
			"byteLength": 140556,
			"target": 34963
		},
		{
			"buffer": 0,
			"byteLength": 201600,
			"byteOffset": 140556,
			"target": 34962
		},
		{
			"buffer": 0,
			"byteLength": 201600,
			"byteOffset": 342156,
			"target": 34962
		},
		{
			"buffer": 0,
			"byteLength": 268800,
			"byteOffset": 543756,
			"target": 34962
		},
		{
			"buffer": 0,
			"byteLength": 134400,
			"byteOffset": 812556,
			"target": 34962
		},
		{
			"buffer": 0,
			"byteLength": 134400,
			"byteOffset": 946956,
			"target": 34962
		}
	],
	"images": [
		{
			"uri": "MI_Modern_06_BaseColor.png"
		},
		{
			"uri": "MI_Modern_06_MetallicRoughness.png"
		},
		{
			"uri": "MI_Modern_06_Normal.png"
		}
	],
	"materials": [
		{
			"name": "MI_Modern_06",
			"pbrMetallicRoughness":
			{
				"baseColorTexture":
				{
					"index": 0
				},
				"metallicRoughnessTexture":
				{
					"index": 1
				}
			},
			"normalTexture":
			{
				"index": 2
			}
		}
	],
	"meshes": [
		{
			"name": "SM_PCB_Modern_06_Low",
			"primitives": [
				{
					"attributes":
					{
						"POSITION": 1,
						"NORMAL": 2,
						"TANGENT": 3,
						"TEXCOORD_0": 4,
						"TEXCOORD_1": 5
					},
					"indices": 0,
					"material": 0
				}
			]
		}
	],
	"nodes": [
		{
			"mesh": 0
		}
	],
	"samplers": [
		{
			"minFilter": 9987,
			"magFilter": 9729
		}
	],
	"scenes": [
		{
			"nodes": [ 0 ]
		}
	],
	"textures": [
		{
			"name": "MI_Modern_06_BaseColor",
			"sampler": 0,
			"source": 0
		},
		{
			"name": "MI_Modern_06_MetallicRoughness",
			"sampler": 0,
			"source": 1
		},
		{
			"name": "MI_Modern_06_Normal",
			"sampler": 0,
			"source": 2
		}
	]
}