{
	"asset":
	{
		"version": "2.0",
		"generator": "Unreal Engine 5.5.4"
	},
	"scene": 0,
	"accessors": [
		{
			"bufferView": 0,
			"count": 351381,
			"type": "SCALAR",
			"componentType": 5125
		},
		{
			"bufferView": 1,
			"count": 71845,
			"type": "VEC3",
			"componentType": 5126,
			"min": [ -0.49510169, -0.0382447205, -0.497324675 ],
			"max": [ 0.494226485, 0.0382310487, 0.497220516 ]
		},
		{
			"bufferView": 2,
			"count": 71845,
			"type": "VEC3",
			"componentType": 5126
		},
		{
			"bufferView": 3,
			"count": 71845,
			"type": "VEC4",
			"componentType": 5126
		},
		{
			"bufferView": 4,
			"count": 71845,
			"type": "VEC2",
			"componentType": 5126
		},
		{
			"bufferView": 5,
			"count": 71845,
			"type": "VEC2",
			"componentType": 5126
		}
	],
	"buffers": [
		{
			"uri": "SM_PCB_Modern_06_High.bin",
			"byteLength": 5428844
		}
	],
	"bufferViews": [
		{
			"buffer": 0,
			"byteLength": 1405524,
			"target": 34963
		},
		{
			"buffer": 0,
			"byteLength": 862140,
			"byteOffset": 1405524,
			"target": 34962
		},
		{
			"buffer": 0,
			"byteLength": 862140,
			"byteOffset": 2267664,
			"target": 34962
		},
		{
			"buffer": 0,
			"byteLength": 1149520,
			"byteOffset": 3129804,
			"target": 34962
		},
		{
			"buffer": 0,
			"byteLength": 574760,
			"byteOffset": 4279324,
			"target": 34962
		},
		{
			"buffer": 0,
			"byteLength": 574760,
			"byteOffset": 4854084,
			"target": 34962
		}
	],
	"images": [
		{
			"uri": "MI_Modern_06_BaseColor.png"
		},
		{
			"uri": "MI_Modern_06_MetallicRoughness.png"
		},
		{
			"uri": "MI_Modern_06_Normal.png"
		}
	],
	"materials": [
		{
			"name": "MI_Modern_06",
			"pbrMetallicRoughness":
			{
				"baseColorTexture":
				{
					"index": 0
				},
				"metallicRoughnessTexture":
				{
					"index": 1
				}
			},
			"normalTexture":
			{
				"index": 2
			}
		}
	],
	"meshes": [
		{
			"name": "SM_PCB_Modern_06_High",
			"primitives": [
				{
					"attributes":
					{
						"POSITION": 1,
						"NORMAL": 2,
						"TANGENT": 3,
						"TEXCOORD_0": 4,
						"TEXCOORD_1": 5
					},
					"indices": 0,
					"material": 0
				}
			]
		}
	],
	"nodes": [
		{
			"mesh": 0
		}
	],
	"samplers": [
		{
			"minFilter": 9987,
			"magFilter": 9729
		}
	],
	"scenes": [
		{
			"nodes": [ 0 ]
		}
	],
	"textures": [
		{
			"name": "MI_Modern_06_BaseColor",
			"sampler": 0,
			"source": 0
		},
		{
			"name": "MI_Modern_06_MetallicRoughness",
			"sampler": 0,
			"source": 1
		},
		{
			"name": "MI_Modern_06_Normal",
			"sampler": 0,
			"source": 2
		}
	]
}